<svg height="512pt" viewBox="0 -26 512 511" width="512pt" xmlns="http://www.w3.org/2000/svg"><path d="m453.121094 151.355469h-7.921875c-2.191407 0-4.332031-.375-6.367188-1.113281-3.890625-1.410157-8.191406.597656-9.601562 4.488281-1.414063 3.890625.59375 8.191406 4.488281 9.605469 3.675781 1.335937 7.539062 2.011718 11.480469 2.011718h7.921875c24.199218 0 43.886718 19.6875 43.886718 43.886719v206.785156c0 14.636719-11.90625 26.542969-26.542968 26.542969h-428.929688c-14.636718 0-26.546875-11.90625-26.546875-26.542969v-206.785156c0-24.199219 19.691407-43.886719 43.890625-43.886719h7.921875c18.554688 0 33.652344-15.097656 33.652344-33.652344v-12.769531h59.296875c4.140625 0 7.496094-3.355469 7.496094-7.492187 0-4.140625-3.355469-7.496094-7.496094-7.496094h-68.5c-4.832031 0-8.761719-3.929688-8.761719-8.757812v-2.515626c0-4.828124 3.929688-8.757812 8.761719-8.757812h329.503906c4.828125 0 8.757813 3.929688 8.757813 8.757812v2.515626c0 4.828124-3.929688 8.757812-8.757813 8.757812h-225.789062c-4.140625 0-7.496094 3.355469-7.496094 7.496094 0 4.136718 3.355469 7.492187 7.496094 7.492187h216.582031v6.773438c0 4.140625 3.355469 7.496093 7.496094 7.496093 4.136719 0 7.492187-3.355468 7.492187-7.496093v-7.488281c10.308594-2.589844 17.964844-11.933594 17.964844-23.035157v-2.511719c0-11.101562-7.65625-20.445312-17.964844-23.035156v-20.808594c10.304688-2.550781 17.964844-11.871093 17.964844-22.949218v-2.730469c0-13.035156-10.605469-23.640625-23.640625-23.640625h-329.71875c-13.035156 0-23.640625 10.605469-23.640625 23.640625v2.730469c0 11.078125 7.660156 20.398437 17.964844 22.949218v20.808594c-10.308594 2.589844-17.964844 11.933594-17.964844 23.035156v2.511719c0 11.101563 7.65625 20.445313 17.964844 23.035157v13.480468c0 10.292969-8.375 18.664063-18.664063 18.664063h-7.921875c-32.46875 0-58.878906 26.414062-58.878906 58.878906v206.785156c0 22.902344 18.632812 41.535157 41.535156 41.535157h428.929688c22.902344 0 41.535156-18.632813 41.535156-41.535157v-206.785156c0-32.464844-26.410156-58.878906-58.878906-58.878906zm-41.574219-100.84375v19.402343h-311.09375v-19.402343zm-329.058594-23.640625v-2.730469c0-4.769531 3.882813-8.652344 8.652344-8.652344h329.71875c4.769531 0 8.652344 3.882813 8.652344 8.652344v2.730469c0 4.769531-3.882813 8.652344-8.652344 8.652344h-329.71875c-4.773437 0-8.652344-3.882813-8.652344-8.652344zm0 0"/><path d="m422.359375 236.703125-12.457031-9.222656c-22.070313-16.339844-51.726563-16.363281-73.816406-.058594l-9.355469 6.558594c-4.984375 3.492187-11.621094 3.40625-16.511719-.214844l-102.035156-75.546875c-20.152344-14.921875-47.230469-14.921875-67.382813 0-.042969.027344-.085937.0625-.128906.09375l-110.675781 85.640625c-4.25 3.285156-6.785156 8.457031-6.785156 13.832031v151.53125c0 14.605469 11.878906 26.484375 26.480468 26.484375h412.617188c14.601562 0 26.484375-11.878906 26.484375-26.484375v-146.441406c0-9.644531-7.847657-17.488281-17.488281-17.488281h-22.632813c-9.40625 0-18.75-3.085938-26.3125-8.683594zm48.941406 23.671875c1.378907 0 2.5 1.121094 2.5 2.5v146.441406c0 6.335938-5.15625 11.492188-11.492187 11.492188h-412.617188c-6.335937 0-11.492187-5.15625-11.492187-11.492188v-151.535156c0-.765625.363281-1.503906.96875-1.972656l110.609375-85.589844c14.8125-10.925781 34.6875-10.910156 49.484375.042969l102.035156 75.550781c10.085937 7.464844 23.761719 7.640625 34.039063.441406l9.429687-6.613281c.050781-.035156.105469-.074219.15625-.113281 16.765625-12.414063 39.296875-12.414063 56.0625 0l12.453125 9.222656c10.125 7.496094 22.636719 11.625 35.234375 11.625zm0 0"/><path d="m335.351562 288.6875h-159.371093c-24.664063 0-44.734375 20.066406-44.734375 44.734375s20.070312 44.734375 44.734375 44.734375h86.679687c4.140625 0 7.496094-3.355469 7.496094-7.496094s-3.355469-7.496094-7.496094-7.496094h-86.679687c-16.398438 0-29.742188-13.34375-29.742188-29.742187 0-16.402344 13.34375-29.746094 29.742188-29.746094h159.371093c16.402344 0 29.746094 13.34375 29.746094 29.746094 0 16.398437-13.34375 29.742187-29.746094 29.742187h-36.710937c-4.140625 0-7.496094 3.355469-7.496094 7.496094s3.355469 7.496094 7.496094 7.496094h36.710937c24.667969 0 44.734376-20.066406 44.734376-44.734375s-20.066407-44.734375-44.734376-44.734375zm0 0"/></svg>