<svg height="512pt" viewBox="0 0 512.001 512" width="512pt" xmlns="http://www.w3.org/2000/svg"><path d="m144.289062 344.203125-38.335937-38.332031-26.488281 79.464844-79.464844 26.488281 38.335938 38.335937c16.628906 16.628906 40.371093 24.28125 63.605468 20.933594 23.070313 20.84375 51.316406 34.1875 82.1875 38.734375 32.867188 4.84375 66.53125-.65625 97.007813-17.519531 25.40625-14.058594 49.714843-29.957032 72.777343-47.527344 5.503907 5.011719 9.675782 11.367188 12.066407 18.535156l15.457031 46.367188 17.144531-17.140625c28.808594-28.8125 38.097657-71.605469 24.632813-109.398438l17.75-17.75c32.742187-32.742187 28.28125-86.820312-9.539063-114.054687-29.265625-21.078125-71.695312-16.625-98.683593 10.367187l-15.480469 15.480469c-37.792969-13.464844-80.589844-4.175781-109.398438 24.632812l-17.144531 17.144532 46.367188 15.457031c6.457031 2.152344 12.285156 5.785156 17.054687 10.535156-13.445313 16.601563-26.007813 33.917969-37.589844 51.835938-5.804687 8.984375-15.363281 14.796875-26.21875 15.949219-8.910156.945312-17.675781-1.246094-24.949219-6.097657 2.929688-22.859375-4.742187-46.089843-21.09375-62.441406zm248.402344 104.992187c-3.570312-8.714843-8.753906-16.605468-15.230468-23.300781 7.15625-6.046875 14.175781-12.257812 21.050781-18.640625 2.121093 14.257813.078125 28.847656-5.820313 41.941406zm-141.484375-141.480468c12.949219-5.835938 27.363281-7.902344 41.46875-5.898438-6.503906 6.613282-12.867187 13.378906-19.0625 20.292969-6.511719-6.089844-14.097656-10.988281-22.40625-14.394531zm-57.710937 134.828125c19.902344-2.113281 37.480468-12.859375 48.222656-29.484375 44.730469-69.199219 88.308594-104.660156 112.210938-130.160156 16.71875-16.714844 42.503906-19.828126 59.984374-7.242188 23.601563 17 24.898438 49.507812 5.859376 68.546875-16.96875 15.292969-63.628907 72.347656-153.148438 121.886719-48.363281 26.765625-109.800781 17.796875-149.40625-21.808594l-6.09375-6.09375c-2.859375.148438-29.8125 12.566406-51.601562-9.21875l-4.046876-4.046875 47.679688-15.894531 15.894531-47.679688 4.046875 4.046875c21.90625 21.90625 9.375 48.636719 9.21875 51.601563l6.09375 6.09375c14.539063 14.539062 34.617188 21.628906 55.085938 19.453125zm0 0"/><path d="m410.058594 40.421875c-23.070313-20.84375-51.316406-34.183594-82.1875-38.730469-33.761719-4.976562-67.308594 1.082032-97.007813 17.515625-25.40625 14.0625-49.714843 29.957031-72.777343 47.527344-5.503907-5.007813-9.675782-11.363281-12.066407-18.535156l-15.457031-46.367188-17.144531 17.144531c-28.808594 28.808594-38.097657 71.605469-24.632813 109.398438l-17.75 17.746094c-32.742187 32.742187-28.28125 86.824218 9.539063 114.058594 29.375 21.152343 71.789062 16.523437 98.683593-10.371094l15.472657-15.472656c11.425781 4.070312 23.300781 6.070312 35.117187 6.070312 27.269532-.003906 54.1875-10.609375 74.289063-30.710938l17.144531-17.144531-46.367188-15.457031c-6.457031-2.152344-12.285156-5.785156-17.054687-10.535156 13.445313-16.601563 26.007813-33.917969 37.589844-51.835938 5.804687-8.984375 15.363281-14.796875 26.21875-15.949218 8.910156-.945313 17.675781 1.246093 24.949219 6.097656-2.929688 22.863281 4.746093 46.089844 21.09375 62.441406l38.335937 38.335938 26.488281-79.46875 79.464844-26.488282-38.332031-38.335937c-16.632813-16.625-40.375-24.28125-63.609375-20.933594zm-290.746094 21.898437c3.570312 8.71875 8.753906 16.605469 15.226562 23.300782-7.152343 6.046875-14.175781 12.261718-21.050781 18.644531-2.121093-14.257813-.078125-28.847656 5.824219-41.945313zm141.480469 141.480469c-12.949219 5.835938-27.363281 7.902344-41.46875 5.898438 6.503906-6.613281 12.867187-13.375 19.0625-20.292969 6.511719 6.089844 14.097656 10.988281 22.40625 14.394531zm148.050781-101.3125-15.894531 47.679688-4.046875-4.046875c-21.90625-21.90625-9.375-48.632813-9.21875-51.601563l-6.09375-6.09375c-14.539063-14.535156-34.617188-21.625-55.085938-19.453125-19.902344 2.113282-37.480468 12.859375-48.222656 29.484375-44.730469 69.199219-88.308594 104.660157-112.210938 130.160157-16.71875 16.714843-42.503906 19.828124-59.984374 7.242187-23.601563-17-24.898438-49.507813-5.859376-68.546875 16.96875-15.292969 63.628907-72.34375 153.148438-121.882812 48.363281-26.765626 109.804688-17.796876 149.40625 21.804687l6.09375 6.09375c2.859375-.148437 29.8125-12.566406 51.601562 9.21875l4.042969 4.050781zm0 0"/></svg>