<svg id="Capa_1" enable-background="new 0 0 511.995 511.995" height="512" viewBox="0 0 511.995 511.995" width="512" xmlns="http://www.w3.org/2000/svg"><g><path d="m406.337 137.34c-4.432 0-8.859.288-13.24.844v-6.482s0 0 0-.001 0 0 0-.001c0-17.299-6.736-33.556-18.967-45.773-12.23-12.231-28.49-18.967-45.783-18.967h-72.246v-12.639h17.031c14.977 0 27.16-12.184 27.16-27.16 0-14.977-12.184-27.161-27.16-27.161h-98.218c-14.977 0-27.161 12.184-27.161 27.161 0 14.976 12.184 27.16 27.161 27.16h17.03v12.639h-55.157c-4.142 0-7.5 3.358-7.5 7.5s3.358 7.5 7.5 7.5h191.56c13.286 0 25.779 5.176 35.18 14.576 7.604 7.596 12.443 17.225 14.013 27.664h-304.926c2.938-19.259 17.021-35.386 36.247-40.546 4-1.074 6.373-5.188 5.299-9.188-1.074-4.001-5.193-6.373-9.188-5.299-25.777 6.919-44.442 28.979-47.481 55.035h-49.143c-2.733 0-5.25 1.486-6.568 3.88-1.319 2.394-1.232 5.315.228 7.625l55.037 87.125v242.632c0 25.657 20.874 46.531 46.531 46.531h242.991c20.908 0 38.636-13.864 44.484-32.879 5.04.741 10.156 1.125 15.287 1.125 11.755 0 23.29-1.94 34.285-5.767 3.912-1.362 5.979-5.637 4.618-9.549-1.36-3.912-5.635-5.979-9.548-4.618-9.406 3.274-19.283 4.934-29.355 4.934-4.448 0-8.879-.335-13.24-.984v-25.395c4.333.904 8.757 1.376 13.24 1.376 35.736 0 64.81-29.073 64.81-64.81v-133.28c0-35.736-29.073-64.81-64.81-64.81-4.483 0-8.906.472-13.24 1.376v-25.39c4.368-.649 8.8-.984 13.24-.984 49.521 0 89.811 40.289 89.811 89.81v133.28c0 28.493-13.126 54.689-36.014 71.872-3.312 2.487-3.981 7.188-1.495 10.501 1.474 1.963 3.725 2.998 6.004 2.998 1.566 0 3.147-.489 4.497-1.502 26.696-20.042 42.008-50.611 42.008-83.868v-133.281c-.002-57.793-47.019-104.81-104.812-104.81zm-243.584-110.179c0-6.706 5.455-12.161 12.161-12.161h98.218c6.705 0 12.16 5.455 12.16 12.161 0 6.705-5.455 12.16-12.16 12.16h-98.218c-6.706 0-12.161-5.455-12.161-12.16zm78.348 27.16v12.636h-34.157v-12.636zm136.995 176.984c-6.065 3.065-11.497 6.445-16.771 9.74-15.527 9.7-30.192 18.862-60.062 18.862-20.474 0-33.803-4.306-45.164-10.139v-110.566h121.996v92.103zm0 17.077v156.5c-4.316-2.46-9.303-3.874-14.617-3.874h-107.378v-134.627c11.534 4.983 25.552 8.527 45.164 8.527 34.169 0 51.372-10.747 68.009-21.141 2.972-1.857 5.87-3.663 8.822-5.385zm-136.995-109.18v101.777c-9.986-6.238-20.194-12.592-34.157-16.668v-85.109zm-7.841 114.565c2.579 1.612 5.173 3.231 7.841 4.819v142.422h-34.157v-160.913c10.118 3.554 18.097 8.537 26.316 13.672zm-41.316 147.241h-105.284c-5.313 0-10.3 1.414-14.616 3.874v-132.671c17.727-3.858 29.606-11.254 41.114-18.443 15.528-9.699 30.194-18.86 60.058-18.86 7.015 0 13.183.511 18.729 1.41v164.69zm-105.284 15h276.819c8.06 0 14.617 6.557 14.617 14.617s-6.558 14.616-14.617 14.616h-276.819c-8.06 0-14.616-6.557-14.616-14.616s6.556-14.617 14.616-14.617zm-64.703-276.806h169.987v81.933c-5.646-.784-11.837-1.227-18.729-1.227-34.163 0-51.367 10.746-68.004 21.139-10.059 6.283-19.667 12.266-33.167 15.75v-36.135c0-1.418-.402-2.807-1.159-4.005zm324.608 357.793h-242.991c-17.386 0-31.531-14.145-31.531-31.531v-9.097c4.316 2.46 9.303 3.874 14.616 3.874h276.819c5.314 0 10.301-1.414 14.617-3.874v9.097c.001 17.386-14.143 31.531-31.53 31.531zm59.772-304.657c27.465 0 49.81 22.345 49.81 49.81v133.279c0 27.465-22.345 49.81-49.81 49.81-4.511 0-8.945-.607-13.24-1.792v-229.314c4.295-1.186 8.729-1.793 13.24-1.793z"/></g></svg>