<svg id="Layer_1" enable-background="new 0 0 512.001 512.001" height="512" viewBox="0 0 512.001 512.001" width="512" xmlns="http://www.w3.org/2000/svg"><g><g><path fill="#F4F7F3" d="m376 236.141c0-16.542-13.458-30-30-30h-45.003c-5.522 0-10 4.477-10 10s4.478 10 10 10h45.003c5.514 0 10 4.486 10 10v40c0 5.514-4.486 10-10 10h-180c-5.514 0-10-4.486-10-10v-40c0-5.514 4.486-10 10-10h44.997c5.522 0 10-4.477 10-10s-4.478-10-10-10h-44.997c-16.542 0-30 13.458-30 30v40c0 16.542 13.458 30 30 30h180c16.542 0 30-13.458 30-30z"/><path fill="#F4F7F3" d="m486.196 319.723c-.234-14.059-8.484-26.196-20.362-32.049-.081-3.481-.179-6.949-.278-10.343-.215-7.393-.419-14.376-.419-21.189 0-6.815.204-13.8.42-21.195 1.019-34.913 2.174-74.484-20.929-98.271-13.42-13.818-32.781-20.535-59.189-20.535-7.693 0-15.129.271-22.372.719.416-4.389.063-8.855-1.093-13.171-5.33-19.892-25.851-31.742-45.743-26.409-4.04 1.082-7.84 2.822-11.261 5.136-10.05-4.959-21.565-6.142-32.593-3.186-12.012 3.218-22.051 10.921-28.268 21.69-4.401 7.623-6.502 16.137-6.22 24.721-15.523-.831-30.163-2.59-45.412-4.428-19.132-2.306-38.874-4.683-60.582-5.027-7.452-9.098-18.766-14.916-31.416-14.916-4.855 0-9.631.863-14.124 2.529-9.437-8.549-21.695-13.329-34.656-13.329-28.507 0-51.699 23.192-51.699 51.699 0 26.39 19.877 48.226 45.444 51.324.312.726.656 1.433 1.012 2.132-.767 12.919-.391 26.325-.012 39.324.216 7.394.42 14.377.42 21.191 0 6.815-.204 13.8-.42 21.195-1.019 34.913-2.174 74.484 20.929 98.271 13.42 13.818 32.781 20.535 59.189 20.535 2.928 0 5.858-.039 8.828-.116 3.207 22.564 22.644 39.975 46.079 39.975 11.2 0 21.858-3.987 30.223-11.139 4.029 1.448 8.299 2.197 12.643 2.197 20.594 0 37.349-16.755 37.349-37.349 0-1.186-.062-2.358-.17-3.516 20.382.347 38.708 2.549 58.01 4.876 20.688 2.493 42.082 5.072 65.915 5.072 1.051 0 2.094-.017 3.14-.041 9.102 7.984 21.013 12.839 34.043 12.839 12.96 0 25.218-4.781 34.656-13.329 4.492 1.666 9.268 2.529 14.123 2.529 22.387 0 40.6-18.213 40.6-40.6 0-16.994-10.583-31.852-25.805-37.816zm-224.766-208.804c3.546-6.143 9.272-10.536 16.123-12.372 7.779-2.085 15.983-.558 22.51 4.189 4.082 2.968 9.735 2.431 13.185-1.256 2.203-2.354 5.024-4.043 8.159-4.883 9.245-2.476 18.773 3.027 21.249 12.267.873 3.261.768 6.603-.231 9.727-7.781.8-15.388 1.715-22.9 2.621-20.423 2.461-39.754 4.783-61.583 4.916-.398-5.269.788-10.533 3.488-15.209zm-241.43 31.25c0-17.479 14.221-31.7 31.699-31.7 9.623 0 18.616 4.301 24.674 11.8 3.188 3.949 8.832 4.881 13.122 2.169 3.281-2.074 7.079-3.17 10.984-3.17 11.358 0 20.6 9.241 20.6 20.601 0 10.346-7.722 19.13-17.961 20.433-2.863.364-5.431 1.949-7.04 4.346s-2.104 5.373-1.356 8.162c.37 1.381.558 2.814.558 4.258 0 9.043-7.357 16.4-16.4 16.4-7.924 0-14.708-5.643-16.13-13.417-.871-4.761-5.021-8.2-9.833-8.2-.094 0-.188.001-.283.004-.31.009-.621.014-.934.014-17.479.001-31.7-14.22-31.7-31.7zm204.335 264.889c-3.323 0-6.549-.939-9.328-2.717-4.252-2.719-9.864-1.843-13.085 2.041-5.069 6.112-12.524 9.618-20.452 9.618-14.642 0-26.553-11.912-26.553-26.553s11.911-26.553 26.553-26.553c8.054 0 15.583 3.598 20.658 9.872 3.173 3.924 8.773 4.867 13.06 2.201 2.737-1.705 5.9-2.605 9.147-2.605 9.566 0 17.349 7.783 17.349 17.349 0 9.564-7.783 17.347-17.349 17.347zm31.665-40.917c-.886 0-1.797.008-2.706.016-6.854-8.411-17.288-13.796-28.959-13.796-4.183 0-8.304.697-12.208 2.046-8.422-7.39-19.238-11.513-30.657-11.513-20.983 0-38.761 13.957-44.556 33.073-3.5.112-6.933.174-10.352.174-20.718 0-35.387-4.733-44.843-14.469-17.211-17.721-16.231-51.29-15.283-83.753.21-7.213.428-14.671.428-21.778 0-7.106-.218-14.563-.428-21.775-.206-7.035-.409-14.193-.427-21.249 4.02 1.518 8.36 2.353 12.87 2.353 19.865 0 36.065-15.995 36.396-35.783 15.222-5.965 25.805-20.823 25.805-37.816 0-1.838-.135-3.645-.372-5.419 17.016.723 32.835 2.624 49.378 4.618 20.688 2.494 42.082 5.072 65.915 5.072s45.228-2.578 65.917-5.072c21.027-2.534 40.89-4.928 63.521-4.928 20.719 0 35.387 4.733 44.843 14.469 17.211 17.721 16.231 51.289 15.283 83.752-.21 7.213-.428 14.671-.428 21.778 0 7.105.218 14.562.428 21.772.061 2.07.12 4.17.177 6.277-13.075 1.458-24.259 9.84-29.374 21.726-25.568 3.098-45.445 24.934-45.445 51.323 0 6.598 1.256 12.904 3.518 18.71-18.22-.609-34.969-2.621-52.523-4.737-20.69-2.493-42.084-5.071-65.918-5.071zm215.401 11.999c-3.905 0-7.703-1.096-10.983-3.169-4.291-2.713-9.932-1.78-13.122 2.169-6.058 7.5-15.052 11.801-24.674 11.801-17.479 0-31.7-14.221-31.7-31.7s14.221-31.7 31.7-31.7c.309 0 .615.004.923.013.098.003.195.004.294.004 4.812 0 8.962-3.439 9.833-8.2 1.423-7.774 8.206-13.417 16.13-13.417 9.043 0 16.399 7.357 16.399 16.4 0 1.444-.188 2.877-.558 4.258-.747 2.789-.253 5.765 1.356 8.162s4.177 3.982 7.04 4.346c10.239 1.303 17.961 10.087 17.961 20.434.001 11.357-9.24 20.599-20.599 20.599z"/><path fill="#F4F7F3" d="m256 226.141c5.522 0 10-4.477 10-10s-4.478-10-10-10h-.007c-5.522 0-9.996 4.477-9.996 10s4.481 10 10.003 10z"/></g></g></svg>