<svg id="Capa_1" enable-background="new 0 0 512 512" height="512" viewBox="0 0 512 512" width="512" xmlns="http://www.w3.org/2000/svg"><g><g><g clip-rule="evenodd" fill-rule="evenodd"><path d="m46.341 249.499v255.001h255v-255.001l-59.999-74.999h-135.001zm45 29.999h165.001c8.25 0 15 6.754 15 15v165.002c0 8.245-6.754 15-15 15h-165.001c-8.245 0-15-6.75-15-15v-165.002c0-8.25 6.75-15 15-15z" fill="#8ad8f6"/><path d="m76.341 294.498v165.002c0 8.25 6.754 15 15 15h165.001c8.245 0 15-6.754 15-15v-165.002c0-8.245-6.75-15-15-15h-165.001c-8.25 0-15 6.75-15 15zm138.198 46.16c3.408 22.201-3.935 81.624-47.146 69.203-2.328-3.034-4.078-6.016-5.317-8.937-32.627-12.021-31.209-43.593-28.221-63.06 12.774 2.889 31.436 6.155 43.143 21.827 12.129-10.017 27.843-16.84 37.541-19.033z" fill="#fff"/><path d="m167.393 409.861c43.211 12.421 50.555-47.002 47.146-69.203-28.924 6.54-72.112 36.676-47.146 69.203z" fill="#aae79a"/><path d="m162.075 400.924c-6.88-16.219 1.98-30.544 14.924-41.229-11.709-15.676-30.37-18.942-43.145-21.83-2.987 19.467-4.406 51.038 28.221 63.059z" fill="#6ad34d"/><path d="m361.341 286.998v98.183h104.318v-98.183l-52.16-36.818z" fill="#8ad8f6"/><path d="m46.341 249.499v255.001h22.5v-247.501l67.499-82.499h-29.999z" fill="#3ca6e5"/><path d="m76.341 294.498v165.002c0 8.25 6.754 15 15 15h22.5c-8.245 0-15-6.75-15-15v-165.002c0-8.25 6.75-15 15-15h-22.5c-8.25 0-15 6.75-15 15z" fill="#b6e6fa"/><path d="m361.341 286.998v98.183h22.499v-114.065z" fill="#3ca6e5"/></g><g><path d="m443.159 316.998h-15v-15h15zm-185.828-62.482-9.37-11.713 11.713-9.37 9.37 11.713zm-18.74-23.427-9.371-11.713 11.713-9.37 9.371 11.713z" fill="#fff"/></g></g><g><path d="m241.342 497h15v15h-15z"/><path d="m220.731 331.568-7.847 1.774c-7.996 1.808-22.163 7.374-34.804 16.197-12.398-12.298-28.817-15.938-40.151-18.45-.828-.184-1.636-.362-2.421-.54l-7.847-1.774-1.221 7.952c-1.459 9.507-2.948 23.74.953 37.51 4.326 15.264 14.137 26.207 29.18 32.572 1.28 2.482 2.878 5.026 4.868 7.619l1.504 1.959 2.374.682c4.819 1.386 9.204 1.971 13.176 1.971 10.982 0 18.8-4.48 23.85-8.923 20.067-17.658 21.867-55.874 19.606-70.597zm-66.369 45.859c-.976 2.7-1.774 5.872-2.055 9.415-9.68-8.302-13.576-21.316-12.006-39.827 8.903 2.138 18.605 5.235 26.17 12.185-5.309 5.349-9.655 11.439-12.109 18.227zm38.076 21.429c-5.477 4.817-12.216 6.27-20.556 4.416-4.777-7.079-5.893-13.886-3.413-20.745 5.333-14.751 25.141-26.499 39.284-31.907.143 15.141-3.54 37.874-15.315 48.236z"/><path d="m420.999 246.295v-118.966c0-70.209-57.119-127.329-127.328-127.329-70.21 0-127.329 57.12-127.329 127.329v39.671h-63.605l-63.895 79.868v265.132h187.5v-15h-172.5v-244.871l56.103-70.129h56.396v15h-15v15h45v-15h-15v-15h56.396l56.104 70.13v244.87h-22.499v15h37.499v-265.132l-63.895-79.868h-63.604v-39.67c0-61.939 50.39-112.33 112.329-112.33 61.938 0 112.328 50.391 112.328 112.329v118.966l-52.158 36.818v109.568h52.158v-15h-37.158v-86.796l44.658-31.524 44.659 31.524v86.796h-37.158v15h52.158v-109.569z"/><path d="m278.842 459.5v-165.002c0-12.406-10.094-22.5-22.5-22.5h-165.001c-12.406 0-22.5 10.093-22.5 22.5v165.002c0 12.406 10.094 22.5 22.5 22.5h165.001c12.406 0 22.5-10.093 22.5-22.5zm-15 0c0 4.135-3.364 7.5-7.5 7.5h-165.001c-4.136 0-7.5-3.364-7.5-7.5v-165.002c0-4.135 3.364-7.5 7.5-7.5h165.001c4.136 0 7.5 3.364 7.5 7.5z"/></g></g></svg>